<svg width="137" height="137" viewBox="0 0 137 137" fill="none" xmlns="http://www.w3.org/2000/svg">
<path fill-rule="evenodd" clip-rule="evenodd" d="M68.5 137C106.332 137 137 106.332 137 68.5C137 30.6685 106.332 0 68.5 0C30.6685 0 0 30.6685 0 68.5C0 106.332 30.6685 137 68.5 137ZM67.6714 30.3828C61.8714 42.618 56.0714 54.867 50.2714 67.116C44.4706 79.3668 38.6698 91.6176 32.869 103.855H47.7843C52.4798 94.3806 57.1754 84.8928 61.871 75.405C66.5665 65.9172 71.2621 56.4294 75.9577 46.9554L67.6714 30.3828ZM75.9578 75.6809C78.347 70.7092 80.7362 65.7375 83.1392 60.7658C86.647 67.9471 90.141 75.1285 93.6349 82.3098C97.1291 89.4914 100.623 96.6729 104.131 103.855H88.1109C87.1995 101.728 86.2742 99.6148 85.3489 97.5018C84.4236 95.3888 83.4983 93.2757 82.5867 91.1489H68.7763H68.5L68.7763 90.5965C71.1793 85.6246 73.5686 80.6527 75.9578 75.6809Z" fill="url(#paint0_linear_10282_94863)"/>
<defs>
<linearGradient id="paint0_linear_10282_94863" x1="17.5941" y1="114.336" x2="119.406" y2="22.6642" gradientUnits="userSpaceOnUse">
<stop stop-color="#492CDD"/>
<stop offset="1" stop-color="#AD38E2"/>
</linearGradient>
</defs>
</svg>
