<svg width="500" height="500" viewBox="0 0 500 500" fill="none" xmlns="http://www.w3.org/2000/svg">
<path fill-rule="evenodd" clip-rule="evenodd" d="M250 500C388.071 500 500 388.071 500 250C500 111.929 388.071 0 250 0C111.929 0 0 111.929 0 250C0 388.071 111.929 500 250 500ZM174.622 167.937C135.516 191.002 144.894 252.685 189.309 264.536L263.482 284.328C269.667 285.979 270.786 294.457 265.25 297.722L193.552 339.856L185.972 414.286L325.378 332.063C364.484 308.998 355.106 247.315 310.692 235.464L236.518 215.672C230.334 214.022 229.214 205.543 234.75 202.278L306.449 160.144L314.029 85.7144L174.622 167.937Z" fill="#5733FF"/>
</svg>
