<?xml version='1.0' encoding='utf-8'?>
<svg xmlns="http://www.w3.org/2000/svg" enable-background="new 0 0 5000 5000" version="1.1" viewBox="0 0 5e3 5e3"> <style type="text/css"> .st0{fill:#21759B;} </style> <path class="st0" d="M598.1,2499.9c0,752.8,437.5,1403.3,1071.9,1711.6L762.8,1726C657.3,1962.5,598.1,2224.2,598.1,2499.9z"/> <path class="st0" d="m3783.8 2404c0-235-84.4-397.8-156.8-524.5-96.4-156.7-186.8-289.3-186.8-446 0-174.8 132.6-337.6 319.4-337.6 8.4 0 16.4 1 24.6 1.5-338.4-310-789.2-499.2-1284.3-499.2-664.4 0-1249 340.9-1589 857.2 44.6 1.3 86.7 2.3 122.4 2.3 198.9 0 506.8-24.1 506.8-24.1 102.5-6 114.6 144.5 12.2 156.7 0 0-103 12.1-217.7 18.1l692.6 2060 416.2-1248.2-296.3-811.8c-102.4-6-199.4-18.1-199.4-18.1-102.5-6-90.5-162.7 12-156.7 0 0 314.1 24.1 500.9 24.1 198.9 0 506.8-24.1 506.8-24.1 102.6-6 114.6 144.5 12.2 156.7 0 0-103.2 12.1-217.7 18.1l687.3 2044.4 189.7-633.9c82.4-263.2 144.9-452.1 144.9-614.9z"/> <path class="st0" d="m2533.3 2666.3-570.6 1658.1c170.4 50.1 350.6 77.5 537.2 77.5 221.5 0 433.9-38.3 631.6-107.8-5.1-8.1-9.7-16.8-13.5-26.2l-584.7-1601.6z"/> <path class="st0" d="m4168.7 1587.5c8.2 60.6 12.8 125.6 12.8 195.6 0 193-36 409.9-144.6 681.2l-580.9 1679.6c565.4-329.7 945.7-942.3 945.7-1643.9 0-330.7-84.4-641.6-233-912.5z"/> <path class="st0" d="m2499.9 283.1c-1222.3 0-2216.9 994.5-2216.9 2216.8 0 1222.5 994.6 2217 2216.9 2217 1222.4 0 2217.1-994.4 2217.1-2217 0-1222.3-994.7-2216.8-2217.1-2216.8zm0 4332.2c-1166.3 0-2115.3-949-2115.3-2115.4 0-1166.3 948.9-2115.2 2115.3-2115.2 1166.3 0 2115.2 948.9 2115.2 2115.2 0 1166.5-948.9 2115.4-2115.2 2115.4z"/> </svg>